<svg xmlns="http://www.w3.org/2000/svg" viewBox="0 0 24 24" fill="currentColor" class="w-6 h-6"><path fill-rule="evenodd" d="M12 2.25c-5.385 0-9.75 4.365-9.75 9.75s4.365 9.75 9.75 9.75 9.75-4.365 9.75-9.75S17.385 2.25 12 2.25zm-2.625 6c-.54 0-.828.419-.936.634a1.96 1.96 0 00-.189.866c0 .298.059.605.189.866.1.215.395.634.936.634.54 0 .828-.419.936-.634.13-.26.189-.568.189-.866 0-.298-.059-.605-.189-.866-.1-.215-.395-.634-.936-.634zm4.314.634c.1.215.395.634.936.634.54 0 .828-.419.936-.634.13-.26.189-.568.189-.866 0-.298-.059-.605-.189-.866-.1-.215-.396-.634-.936-.634-.54 0-.828.419-.936.634a1.96 1.96 0 00-.189.866c0 .298.059.605.189.866zm-4.314 3.75c.54 0 .828.419.936.634a1.96 1.96 0 01.189.866c0 .298-.059.605-.189.866-.1.215-.395.634-.936.634-.54 0-.828-.419-.936-.634a1.96 1.96 0 01-.189-.866c0-.298.059-.605.189-.866.1-.215.395-.634.936-.634zm4.314.634c.1.215.395.634.936.634.54 0 .828-.419.936-.634.13-.26.189-.568.189-.866 0-.298-.059-.605-.189-.866-.1-.215-.396-.634-.936-.634-.54 0-.828.419-.936.634a1.96 1.96 0 00-.189.866c0 .298.059.605.189.866z" clip-rule="evenodd" /></svg>